<svg aria-hidden="true" style="position: absolute; width: 0; height: 0; overflow: hidden;" version="1.1" xmlns="http://www.w3.org/2000/svg" xmlns:xlink="http://www.w3.org/1999/xlink">
<defs>
<symbol id="icon-Star" viewBox="0 0 32 32">
<path fill="#f1582b" style="fill: var(--color1, #f1582b)" d="M12.773 6.591c1.368-3.41 2.052-5.115 3.228-5.115s1.86 1.704 3.228 5.115l0.064 0.16c0.772 1.926 1.16 2.89 1.946 3.474 0.788 0.586 1.82 0.68 3.89 0.864l0.374 0.034c3.382 0.302 5.075 0.454 5.437 1.53s-0.894 2.22-3.406 4.506l-0.84 0.764c-1.272 1.156-1.908 1.736-2.204 2.494-0.056 0.14-0.1 0.286-0.138 0.434-0.194 0.79-0.008 1.63 0.364 3.308l0.116 0.524c0.684 3.086 1.028 4.628 0.43 5.295-0.219 0.242-0.503 0.422-0.824 0.511l-0.012 0.003c-0.864 0.236-2.088-0.762-4.54-2.76-1.608-1.31-2.412-1.964-3.336-2.112-0.165-0.028-0.355-0.043-0.548-0.043s-0.383 0.016-0.568 0.046l0.020-0.003c-0.924 0.148-1.728 0.802-3.338 2.114-2.45 1.996-3.674 2.994-4.538 2.76-0.334-0.093-0.617-0.273-0.835-0.514l-0.001-0.002c-0.598-0.666-0.254-2.208 0.43-5.295l0.116-0.524c0.372-1.68 0.56-2.518 0.364-3.308-0.043-0.173-0.090-0.317-0.146-0.457l0.008 0.023c-0.296-0.76-0.932-1.338-2.204-2.494l-0.84-0.764c-2.512-2.286-3.768-3.43-3.406-4.506 0.36-1.076 2.054-1.228 5.437-1.53l0.374-0.034c2.068-0.186 3.102-0.278 3.89-0.864 0.788-0.584 1.174-1.548 1.946-3.474l0.064-0.16z"></path>
</symbol>
<symbol id="icon-Plus" viewBox="0 0 32 32">
<path fill="black" stroke="black" stroke-linejoin="miter" stroke-linecap="round" stroke-miterlimit="4" stroke-width="2" d="M16.002 1v30.003M31.003 16.002h-30.003"></path>
</symbol>
<symbol id="icon-Minus" viewBox="0 0 32 32">
<path fill="black" stroke="black" style="stroke: var(--color2, black)" stroke-linejoin="miter" stroke-linecap="round" stroke-miterlimit="4" stroke-width="2" d="M31.003 16.002h-30.003"></path>
</symbol>
<symbol id="icon-info_circle" viewBox="0 0 32 32">
<path fill="none" style="fill: var(--color3)" d="M15.002 25.003c0 0.552 0.448 1 1 1s1-0.448 1-1v0h-2zM17.002 13.001c0-0.552-0.448-1-1-1s-1 0.448-1 1v0h2zM30.003 16.002c0 7.733-6.269 14.002-14.002 14.002v0 2c8.837 0 16.002-7.164 16.002-16.002v0h-2zM16.002 30.003c-7.733 0-14.002-6.269-14.002-14.002v0h-2c0 8.837 7.164 16.002 16.002 16.002v0-2zM2 16.002c0-7.733 6.269-14.002 14.002-14.002v0-2c-8.838 0-16.002 7.164-16.002 16.002v0h2zM16.002 2c7.733 0 14.002 6.269 14.002 14.002v0h2c0-8.838-7.164-16.002-16.002-16.002v0 2zM16.002 7.001v2c1.105 0 2-0.896 2-2v0h-2zM16.002 7.001h-2c0 1.105 0.896 2 2 2v0-2zM16.002 7.001v-2c-1.105 0-2 0.896-2 2v0h2zM16.002 7.001h2c0-1.105-0.896-2-2-2v0 2zM17.002 25.003v-12.001h-2v12.001h2z"></path>
</symbol>
<symbol id="icon-Vector" viewBox="0 0 32 32">
<path stroke-linejoin="round" stroke-linecap="round" stroke-miterlimit="4" stroke-width="2" d="M31.003 21.002v10.001M31.003 31.003h-10.001M31.003 31.003l-9.377-9.377M1 21.002v10.001M1 31.003h10.001M1 31.003l9.377-9.377M31.003 11.001v-10.001M31.003 1h-10.001M31.003 1l-9.377 9.377M1 11.001v-10.001M1 1h10.001M1 1l9.377 9.377"></path>
</symbol>
<symbol id="icon-Check" viewBox="0 0 32 32">
<path fill="none" stroke="#fff" style="stroke: var(--color2, #fff)" stroke-linejoin="miter" stroke-linecap="round" stroke-miterlimit="4" stroke-width="2.2857" d="M3.144 22.213l6.136 4.713c0.381 0.295 0.866 0.473 1.392 0.473 0.721 0 1.364-0.334 1.783-0.855l0.003-0.004 16.413-20.543"></path>
</symbol>
<symbol id="icon-Chevron_left" viewBox="0 0 32 32">
<path stroke-linejoin="round" stroke-linecap="round" stroke-miterlimit="4" stroke-width="2" d="M22.002 2l-12.587 12.587c-0.362 0.362-0.586 0.862-0.586 1.414s0.224 1.052 0.586 1.414l12.587 12.587"></path>
</symbol>
<symbol id="icon-Chevron_right" viewBox="0 0 32 32">
<path stroke-linejoin="round" stroke-linecap="round" stroke-miterlimit="4" stroke-width="2.6667" d="M10 2l12.114 12.114c1.041 1.041 1.041 2.73 0 3.771l-12.114 12.114"></path>
</symbol>
<symbol id="icon-Flag" viewBox="0 0 32 32">
<path fill="#fff" style="fill: var(--color2, #fff)" d="M5.961 0c0.013 0 0.026 0 0.039 0h19.344c0.944-0 1.76-0 2.368 0.086 0.59 0.084 1.412 0.304 1.764 1.135s-0.064 1.575-0.415 2.056c-0.362 0.496-0.931 1.081-1.589 1.758l-4.46 4.588c-0.66 0.679-1.084 1.118-1.355 1.483-0.254 0.342-0.283 0.502-0.283 0.608s0.029 0.266 0.283 0.608c0.271 0.365 0.696 0.804 1.355 1.483l4.46 4.587c0.658 0.676 1.227 1.262 1.589 1.758 0.351 0.481 0.767 1.224 0.415 2.056s-1.174 1.051-1.764 1.135c-0.608 0.086-1.424 0.086-2.368 0.086h-19.344v7.571c0 0.552-0.448 1-1 1s-1-0.448-1-1v-29c0-0.013-0-0.026-0-0.039-0-0.2-0-0.438 0.027-0.642 0.033-0.247 0.122-0.589 0.412-0.879s0.632-0.379 0.879-0.412c0.205-0.028 0.443-0.027 0.643-0.027z"></path>
</symbol>
</defs>
</svg>
