<svg aria-hidden="true" style="width:0;height:0;position:absolute;overflow:hidden" xmlns="http://www.w3.org/2000/svg"><defs><symbol id="icon-Star" viewBox="0 0 32 32"><path fill="#f1582b" style="fill:var(--color1,#f1582b)" d="M12.773 6.591c1.368-3.41 2.052-5.115 3.228-5.115s1.86 1.704 3.228 5.115l.064.16c.772 1.926 1.16 2.89 1.946 3.474.788.586 1.82.68 3.89.864l.374.034c3.382.302 5.075.454 5.437 1.53s-.894 2.22-3.406 4.506l-.84.764c-1.272 1.156-1.908 1.736-2.204 2.494-.056.14-.1.286-.138.434-.194.79-.008 1.63.364 3.308l.116.524c.684 3.086 1.028 4.628.43 5.295a1.74 1.74 0 0 1-.824.511l-.012.003c-.864.236-2.088-.762-4.54-2.76-1.608-1.31-2.412-1.964-3.336-2.112a3.549 3.549 0 0 0-1.116.003l.02-.003c-.924.148-1.728.802-3.338 2.114-2.45 1.996-3.674 2.994-4.538 2.76a1.75 1.75 0 0 1-.835-.514l-.001-.002c-.598-.666-.254-2.208.43-5.295l.116-.524c.372-1.68.56-2.518.364-3.308a3.419 3.419 0 0 0-.146-.457l.008.023c-.296-.76-.932-1.338-2.204-2.494l-.84-.764c-2.512-2.286-3.768-3.43-3.406-4.506.36-1.076 2.054-1.228 5.437-1.53l.374-.034c2.068-.186 3.102-.278 3.89-.864.788-.584 1.174-1.548 1.946-3.474l.064-.16z"/></symbol><symbol id="icon-Plus" viewBox="0 0 32 32"><path stroke-linecap="round" stroke-width="2" d="M16.002 1v30.003m15.001-15.001H1"/></symbol><symbol id="icon-Minus" viewBox="0 0 32 32"><path fill="none" stroke="#fff" style="stroke:var(--color2,#fff)" stroke-linecap="round" stroke-width="2" d="M31.003 16.002H1"/></symbol><symbol id="icon-info_circle" viewBox="0 0 32 32"><path fill="none" style="fill:var(--color3)" d="M15.002 25.003a1 1 0 0 0 2 0h-2zm2-12.002a1 1 0 0 0-2 0h2zm13.001 3.001c0 7.733-6.269 14.002-14.002 14.002v2c8.837 0 16.002-7.164 16.002-16.002h-2zM16.002 30.003C8.269 30.003 2 23.734 2 16.001H0c0 8.837 7.164 16.002 16.002 16.002v-2zM2 16.002C2 8.269 8.269 2 16.002 2V0C7.164 0 0 7.164 0 16.002h2zM16.002 2c7.733 0 14.002 6.269 14.002 14.002h2C32.004 7.164 24.84 0 16.002 0v2zm0 5.001v2a2 2 0 0 0 2-2h-2zm0 0h-2a2 2 0 0 0 2 2v-2zm0 0v-2a2 2 0 0 0-2 2h2zm0 0h2a2 2 0 0 0-2-2v2zm1 18.002V13.002h-2v12.001h2z"/></symbol><symbol id="icon-Vector" viewBox="0 0 32 32"><path stroke-linejoin="round" stroke-linecap="round" stroke-width="2" d="M31.003 21.002v10.001m0 0H21.002m10.001 0-9.377-9.377M1 21.002v10.001m0 0h10.001M1 31.003l9.377-9.377m20.626-10.625V1m0 0H21.002m10.001 0-9.377 9.377M1 11.001V1m0 0h10.001M1 1l9.377 9.377"/></symbol><symbol id="icon-Check" viewBox="0 0 32 32"><path fill="none" stroke="#fff" style="stroke:var(--color2,#fff)" stroke-linecap="round" stroke-width="2.286" d="m3.144 22.213 6.136 4.713a2.283 2.283 0 0 0 3.175-.382l.003-.004L28.871 5.997"/></symbol><symbol id="icon-Chevron_left" viewBox="0 0 32 32"><path stroke-linejoin="round" stroke-linecap="round" stroke-width="2" d="M22.002 2 9.415 14.587c-.362.362-.586.862-.586 1.414s.224 1.052.586 1.414l12.587 12.587"/></symbol><symbol id="icon-Chevron_right" viewBox="0 0 32 32"><path stroke-linejoin="round" stroke-linecap="round" stroke-width="2" d="m10.001 2 12.587 12.587c.362.362.586.862.586 1.414s-.224 1.052-.586 1.414L10.001 30.002"/></symbol><symbol id="icon-Flag" viewBox="0 0 32 32"><path fill="#fff" style="fill:var(--color2,#fff)" d="M5.961 0H25.344c.944 0 1.76 0 2.368.086.59.084 1.412.304 1.764 1.135s-.064 1.575-.415 2.056c-.362.496-.931 1.081-1.589 1.758l-4.46 4.588c-.66.679-1.084 1.118-1.355 1.483-.254.342-.283.502-.283.608s.029.266.283.608c.271.365.696.804 1.355 1.483l4.46 4.587c.658.676 1.227 1.262 1.589 1.758.351.481.767 1.224.415 2.056s-1.174 1.051-1.764 1.135c-.608.086-1.424.086-2.368.086H6v7.571a1 1 0 0 1-2 0V1.959c0-.2 0-.438.027-.642.033-.247.122-.589.412-.879s.632-.379.879-.412c.205-.028.443-.027.643-.027z"/></symbol></defs></svg>